<svg version="1.1" xmlns="http://www.w3.org/2000/svg" xmlns:xlink="http://www.w3.org/1999/xlink" width="174.75" height="47.38175" viewBox="0,0,174.75,47.38175"><g transform="translate(-161.625,-111.24325)"><g stroke-miterlimit="10"><path d="M161.625,148.825c0,-10.08013 0,-24.99283 0,-30c0,-3.26779 2.97373,-6.95 8.15,-6.95c31.95558,0 139.35403,0 157.75,0c4.81527,0 8.85,3.98986 8.85,7.45c0,5.23118 0,20.6037 0,30.5c0,5.13809 -2.79097,8.8 -6.35,8.8c-16.56188,0 -132.92841,0 -162.25,0c-3.93568,0 -6.15,-4.13752 -6.15,-9.8z" fill="#bfd9ff" stroke="#000000" stroke-width="0" stroke-linecap="butt"/><text transform="translate(168.875,141.01875) scale(0.5,0.5)" font-size="40" xml:space="preserve" fill="#000000" stroke="none" stroke-width="1" stroke-linecap="butt" font-family="Sans Serif" font-weight="normal" text-anchor="start"><tspan x="0" dy="0">訓令式</tspan></text><text transform="translate(246.625,141.01875) scale(0.5,0.5)" font-size="40" xml:space="preserve" fill="#000000" stroke="none" stroke-width="1" stroke-linecap="butt" font-family="Sans Serif" font-weight="normal" text-anchor="start"><tspan x="0" dy="0">ヘボン式</tspan></text><path d="M161.625,148.19325c0,-10.08013 0,-24.99283 0,-30c0,-3.26779 2.97373,-6.95 8.15,-6.95c13.72145,0 69.875,0 69.875,0l0.25,46.75c0,0 -59.39434,0 -72.125,0c-3.93568,0 -6.15,-4.13752 -6.15,-9.8z" fill-opacity="0.30196" fill="#000000" stroke="#000000" stroke-width="0" stroke-linecap="butt"/><path d="M240,112.5v44.75" fill="none" stroke="#000000" stroke-width="1.5" stroke-linecap="round"/></g></g></svg>