<svg version="1.1" xmlns="http://www.w3.org/2000/svg" xmlns:xlink="http://www.w3.org/1999/xlink" width="972.94326" height="822.73787" viewBox="0,0,972.94326,822.73787"><g transform="translate(307.78058,275.81108)"><g data-paper-data="{&quot;isPaintingLayer&quot;:true}" fill-rule="nonzero" stroke="none" stroke-linecap="butt" stroke-linejoin="miter" stroke-miterlimit="10" stroke-dasharray="" stroke-dashoffset="0" style="mix-blend-mode: normal"><path d="M-70.8108,301.66668v-333.33333h621.62162v333.33333z" fill-opacity="0.8" fill="#ffffff" stroke-width="0"/><path d="M-39.78357,206.77818l89.17158,-255.40501l449.37456,156.8937l-89.17158,255.40501z" fill-opacity="0.34902" fill="#9da6f2" stroke-width="NaN"/><path d="M40.8745,343.14635l-89.17158,-255.40501l449.37456,-156.89371l89.17157,255.40501z" data-paper-data="{&quot;index&quot;:null}" fill-opacity="0.34902" fill="#ffffff" stroke-width="NaN"/><path d="M-147.73634,238.16025l-160.04424,-216.07235l355.93736,-263.64188l160.04424,216.07235z" fill-opacity="0.30196" fill="#79aaf2" stroke-width="NaN"/><path d="M114.9309,-24.27379l95.02846,-251.53729l414.35899,156.54099l-95.02846,251.53729z" data-paper-data="{&quot;index&quot;:null}" fill-opacity="0.30196" fill="#79aaf2" stroke-width="NaN"/><path d="M520.02046,81.48126l145.14222,226.35184l-372.87083,239.09369l-145.14222,-226.35184z" data-paper-data="{&quot;index&quot;:null}" fill-opacity="0.30196" fill="#79aaf2" stroke-width="NaN"/><path d="M348.9287,296.14171l-114.09219,243.48386l-401.09251,-187.94479l114.09219,-243.48386z" data-paper-data="{&quot;index&quot;:null}" fill-opacity="0.30196" fill="#79aaf2" stroke-width="NaN"/><path d="M26,211.28426c0,-50.07104 0,-139.95346 0,-163.7868c0,-11.43466 11.9185,-22.99746 25.5,-22.99746c45.44583,0 299.85682,0 379,0c14.82488,0 23.5,13.51579 23.5,26.36294c0,25.02136 0,114.17341 0,162.66497c0,19.16 -8.83101,31.97208 -19.5,31.97208c-40.59204,0 -295.9721,0 -381,0c-17.25958,0 -27.5,-13.79791 -27.5,-34.21574z" fill="#ffffff" stroke-width="0"/></g></g></svg>